<svg width="32" height="25" viewBox="0 0 32 25" fill="none" xmlns="http://www.w3.org/2000/svg">
<path fill-rule="evenodd" clip-rule="evenodd" d="M4.74621 6.55222C4.18287 5.98653 3.83406 5.20748 3.83406 4.3474C3.83406 2.62762 5.22812 1.23395 6.9479 1.23395C8.66768 1.23395 10.0621 2.62762 10.0621 4.3474C10.0621 5.20748 9.71293 5.98653 9.14998 6.54948C7.93717 7.76933 5.95393 7.75993 4.74621 6.55222ZM22.7884 17.4714C22.2254 16.9057 21.8762 16.1267 21.8762 15.2666C21.8762 13.5468 23.2707 12.1531 24.9905 12.1531C26.7102 12.1531 28.1043 13.5468 28.1043 15.2666C28.1043 16.1267 27.7555 16.9057 27.1922 17.4691C25.9797 18.6885 23.9965 18.6791 22.7884 17.4714ZM21.4347 17.7693C19.4788 18.169 18.0421 19.9088 18.0421 21.919V23.898C18.0421 24.2385 18.3185 24.5149 18.6591 24.5149H31.3215C31.6621 24.5149 31.9385 24.2385 31.9385 23.898V21.919C31.9385 19.9088 30.5014 18.1686 28.5447 17.7693C29.0446 17.0619 29.3383 16.1983 29.3383 15.2666C29.3383 12.866 27.391 10.9192 24.9905 10.9192C22.5895 10.9192 20.6427 12.866 20.6427 15.2666C20.6427 16.1979 20.9359 17.0615 21.4347 17.7693ZM27.3503 18.9183C29.1731 18.9183 30.7045 19.9597 30.7045 21.919V23.281H19.276V21.919C19.276 19.9593 20.8075 18.9183 22.6302 18.9183C24.0544 19.8383 25.9218 19.8551 27.3503 18.9183ZM4.20127 16.9472C3.62775 17.5207 4.50036 18.3929 5.07388 17.8194L6.62767 16.2656L6.66408 20.6424C6.66408 20.983 6.94046 21.2594 7.28105 21.2594H16.3951C17.2063 21.2594 17.2063 20.0254 16.3951 20.0254H7.8902L7.8577 16.2911L9.38605 17.8194C9.95956 18.3929 10.8318 17.5207 10.2587 16.9472L7.66627 14.3548C7.42551 14.1141 7.03442 14.1141 6.79366 14.3548L4.20127 16.9472ZM3.39208 6.85013C1.43663 7.24984 -0.000101089 8.98958 -0.000101089 10.9998V12.9788C-0.000101089 13.3194 0.276285 13.5957 0.616482 13.5957H13.2789C13.6195 13.5957 13.8959 13.3194 13.8959 12.9788V10.9998C13.8959 8.98958 12.4588 7.24944 10.5026 6.85013C11.0021 6.14273 11.2957 5.27912 11.2957 4.3474C11.2957 1.94683 9.34885 0 6.9479 0C4.54734 0 2.60011 1.94683 2.60011 4.3474C2.60011 5.27873 2.89334 6.14234 3.39208 6.85013ZM9.30814 7.99913C11.1309 7.99913 12.662 9.04047 12.662 10.9998V12.3618H1.23346V10.9998C1.23346 9.04008 2.76532 7.99913 4.58805 7.99913C6.01226 8.91911 7.87963 8.93594 9.30814 7.99913Z" fill="white"/>
</svg>
