<svg width="21" height="21" viewBox="0 0 21 21" fill="none" xmlns="http://www.w3.org/2000/svg">
<path d="M10.4646 0C13.5218 0 16.0288 2.50695 16.0288 5.5642C16.0288 8.62145 13.5218 11.0673 10.4646 11.0673C7.40734 11.0673 4.90039 8.62145 4.90039 5.5642C4.90039 2.50695 7.40734 0 10.4646 0ZM10.4646 1.52863C8.26337 1.52863 6.49016 3.36298 6.49016 5.5642C6.49016 7.76542 8.26337 9.53863 10.4646 9.53863C12.6658 9.53863 14.5002 7.76542 14.5002 5.5642C14.5002 3.36298 12.6658 1.52863 10.4646 1.52863Z" fill="white"/>
<path d="M10.4653 11.5564C15.418 11.5564 19.5147 15.3474 20.0039 20.1778C20.1262 21.1562 18.5975 21.3396 18.4753 20.3001C18.0472 16.2646 14.6231 13.085 10.4653 13.085C6.30739 13.085 2.88327 16.2646 2.45526 20.3001C2.39411 21.3396 0.804339 21.1562 0.926629 20.1778C1.41579 15.3474 5.51251 11.5564 10.4653 11.5564Z" fill="white"/>
</svg>
