<svg width="19" height="19" viewBox="0 0 19 19" fill="none" xmlns="http://www.w3.org/2000/svg">
<path d="M6.46 15.96H7.22C7.22 17.2192 8.24079 18.24 9.5 18.24C10.7592 18.24 11.78 17.2192 11.78 15.96H12.54C12.54 17.6389 11.1789 19 9.5 19C7.82105 19 6.46 17.6389 6.46 15.96ZM19 14.4394V14.8207C19 15.4523 18.49 15.96 17.8595 15.96H1.14053C0.510461 15.96 0 15.4502 0 14.8207V14.4394C0 13.1818 1.0208 12.1619 2.28 12.16V7.21971C2.28 3.2313 5.51196 0 9.5 0C13.488 0 16.72 3.23209 16.72 7.21971V12.16C17.9816 12.1619 19 13.1805 19 14.4394ZM16.7165 12.92C16.2991 12.92 15.96 12.5784 15.96 12.1627V7.21971C15.96 3.65182 13.0683 0.76 9.5 0.76C5.93167 0.76 3.04 3.65107 3.04 7.21971V12.1627C3.04 12.5803 2.6992 12.92 2.2835 12.92C1.44209 12.92 0.76 13.6007 0.76 14.4394V14.8207C0.76 15.0302 0.929984 15.2 1.14053 15.2H17.8595C18.071 15.2 18.24 15.0318 18.24 14.8207V14.4394C18.24 13.5992 17.5601 12.92 16.7165 12.92Z" fill="#0066F5"/>
</svg>
