<svg width="19" height="21" viewBox="0 0 19 21" fill="none" xmlns="http://www.w3.org/2000/svg">
<path d="M14.0005 15.7605C14.5379 15.2231 15.0753 14.6856 15.6128 14.1482C16.4622 13.2987 17.3117 12.4493 18.1612 11.5998C18.3562 11.4048 18.5512 11.2097 18.7463 11.0147C19.0778 10.6832 19.0778 10.1197 18.7463 9.78818C18.2089 9.25076 17.6714 8.71334 17.134 8.17591C16.2845 7.33078 15.4351 6.48131 14.5856 5.63183C14.3906 5.4368 14.1955 5.24177 14.0005 5.04674C13.6798 4.72602 13.0904 4.70218 12.774 5.04674C12.4554 5.39346 12.4316 5.93088 12.774 6.27327C13.3114 6.81069 13.8488 7.34811 14.3862 7.88553C15.2357 8.73501 16.0852 9.58448 16.9346 10.4339C17.1297 10.629 17.3247 10.824 17.5197 11.019C17.5197 10.6095 17.5197 10.2021 17.5197 9.79251C16.9823 10.3299 16.4449 10.8674 15.9075 11.4048C15.058 12.2542 14.2085 13.1037 13.3591 13.9532C13.164 14.1482 12.969 14.3433 12.774 14.5383C12.4533 14.859 12.4294 15.4484 12.774 15.7648C13.1207 16.079 13.6581 16.1029 14.0005 15.7605Z" fill="white"/>
<path d="M18.1328 9.53676C17.7037 9.53676 17.2747 9.53676 16.8456 9.53676C15.8141 9.53676 14.7848 9.53676 13.7533 9.53676C12.5072 9.53676 11.259 9.53676 10.013 9.53676C8.93599 9.53676 7.85898 9.53676 6.78197 9.53676C6.25972 9.53676 5.73963 9.53026 5.21738 9.53676C5.21088 9.53676 5.20221 9.53676 5.19571 9.53676C4.7428 9.53676 4.30723 9.9355 4.3289 10.4036C4.35057 10.8738 4.7103 11.2704 5.19571 11.2704C5.62478 11.2704 6.05385 11.2704 6.48292 11.2704C7.51442 11.2704 8.54376 11.2704 9.57526 11.2704C10.8213 11.2704 12.0695 11.2704 13.3155 11.2704C14.3925 11.2704 15.4696 11.2704 16.5466 11.2704C17.0688 11.2704 17.5889 11.2769 18.1111 11.2704C18.1176 11.2704 18.1263 11.2704 18.1328 11.2704C18.5857 11.2704 19.0213 10.8716 18.9996 10.4036C18.9801 9.93333 18.6204 9.53676 18.1328 9.53676Z" fill="white"/>
<path d="M15.6057 16.9914C15.6057 17.5548 15.6057 18.1204 15.6057 18.6838C15.6057 18.7943 15.61 18.9048 15.5948 19.0154C15.6057 18.9395 15.6165 18.8615 15.6252 18.7857C15.6122 18.8723 15.5883 18.9568 15.5558 19.0392C15.584 18.9698 15.6143 18.9005 15.6425 18.8312C15.6057 18.92 15.558 19.0024 15.5017 19.0782C15.5472 19.0197 15.5927 18.9612 15.6382 18.9027C15.5797 18.9785 15.5125 19.0435 15.4388 19.102C15.4973 19.0565 15.5558 19.011 15.6143 18.9655C15.5363 19.024 15.4561 19.0695 15.3673 19.1064C15.4366 19.0782 15.506 19.0479 15.5753 19.0197C15.493 19.0522 15.4085 19.0739 15.3218 19.089C15.3976 19.0782 15.4757 19.0674 15.5515 19.0587C15.3933 19.0782 15.2308 19.0695 15.0704 19.0695C14.7475 19.0695 14.4246 19.0695 14.1018 19.0695C13.0226 19.0695 11.9456 19.0695 10.8664 19.0695C9.55535 19.0695 8.24647 19.0695 6.93543 19.0695C5.80641 19.0695 4.67956 19.0695 3.55054 19.0695C3.01962 19.0695 2.4887 19.0717 1.95778 19.0695C1.90144 19.0695 1.84726 19.0652 1.79309 19.0587C1.86893 19.0695 1.94695 19.0804 2.02279 19.089C1.93611 19.076 1.8516 19.0522 1.76925 19.0197C1.8386 19.0479 1.90794 19.0782 1.97729 19.1064C1.88844 19.0695 1.80609 19.0219 1.73024 18.9655C1.78875 19.011 1.84726 19.0565 1.90577 19.102C1.82993 19.0435 1.76492 18.9764 1.70641 18.9027C1.75191 18.9612 1.79742 19.0197 1.84293 19.0782C1.78442 19.0002 1.73891 18.92 1.70207 18.8312C1.73024 18.9005 1.76058 18.9698 1.78875 19.0392C1.75625 18.9568 1.73458 18.8723 1.71941 18.7857C1.73024 18.8615 1.74108 18.9395 1.74975 19.0154C1.72591 18.8268 1.73891 18.6318 1.73891 18.4411C1.73891 18.0337 1.73891 17.6263 1.73891 17.2189C1.73891 16.6121 1.73891 16.0054 1.73891 15.3986C1.73891 14.6531 1.73891 13.9055 1.73891 13.1601C1.73891 12.3409 1.73891 11.5218 1.73891 10.7048C1.73891 9.8792 1.73891 9.0514 1.73891 8.22577C1.73891 7.45864 1.73891 6.69368 1.73891 5.92656C1.73891 5.27862 1.73891 4.62851 1.73891 3.98057C1.73891 3.519 1.73891 3.05526 1.73891 2.59368C1.73891 2.38131 1.73891 2.17111 1.73891 1.95875C1.73891 1.9024 1.74325 1.84606 1.74975 1.78972C1.73891 1.86556 1.72808 1.94358 1.71941 2.01942C1.73241 1.93274 1.75625 1.84823 1.78875 1.76588C1.76058 1.83522 1.73024 1.90457 1.70207 1.97391C1.73891 1.88507 1.78659 1.80272 1.84293 1.72687C1.79742 1.78538 1.75191 1.84389 1.70641 1.9024C1.76492 1.82656 1.83209 1.76155 1.90577 1.70304C1.84726 1.74854 1.78875 1.79405 1.73024 1.83956C1.80826 1.78105 1.88844 1.73554 1.97729 1.6987C1.90794 1.72687 1.8386 1.75721 1.76925 1.78538C1.8516 1.75288 1.93611 1.73121 2.02279 1.71604C1.94695 1.72687 1.86893 1.73771 1.79309 1.74638C1.95128 1.72687 2.11381 1.73554 2.27417 1.73554C2.59705 1.73554 2.91994 1.73554 3.24282 1.73554C4.322 1.73554 5.39901 1.73554 6.47819 1.73554C7.78923 1.73554 9.09811 1.73554 10.4092 1.73554C11.5382 1.73554 12.665 1.73554 13.794 1.73554C14.325 1.73554 14.8559 1.73337 15.3868 1.73554C15.4431 1.73554 15.4973 1.73988 15.5515 1.74638C15.4757 1.73554 15.3976 1.72471 15.3218 1.71604C15.4085 1.72904 15.493 1.75288 15.5753 1.78538C15.506 1.75721 15.4366 1.72687 15.3673 1.6987C15.4561 1.73554 15.5385 1.78322 15.6143 1.83956C15.5558 1.79405 15.4973 1.74854 15.4388 1.70304C15.5147 1.76155 15.5797 1.82872 15.6382 1.9024C15.5927 1.84389 15.5472 1.78538 15.5017 1.72687C15.5602 1.80489 15.6057 1.88507 15.6425 1.97391C15.6143 1.90457 15.584 1.83522 15.5558 1.76588C15.5883 1.84823 15.61 1.93274 15.6252 2.01942C15.6143 1.94358 15.6035 1.86556 15.5948 1.78972C15.6252 2.02592 15.6057 2.2708 15.6057 2.50917C15.6057 2.86023 15.6057 3.21128 15.6057 3.56234C15.6057 3.64685 15.6057 3.73137 15.6057 3.81588C15.6057 4.26879 16.0044 4.70436 16.4725 4.68269C16.9427 4.66102 17.3393 4.30129 17.3393 3.81588C17.3393 3.34997 17.3393 2.88623 17.3393 2.42032C17.3393 2.25996 17.3415 2.0996 17.3393 1.94141C17.3306 1.2523 16.9601 0.578353 16.3446 0.248967C15.9827 0.0539347 15.6013 0.00192624 15.2026 0.00192624C14.9447 0.00192624 14.6869 0.00192624 14.429 0.00192624C13.4863 0.00192624 12.5437 0.00192624 11.601 0.00192624C10.3788 0.00192624 9.15662 0.00192624 7.93442 0.00192624C6.78374 0.00192624 5.63305 0.00192624 4.48019 0.00192624C3.73907 0.00192624 2.99795 0.00192624 2.25466 0.00192624C2.13548 0.00192624 2.01412 -0.0024078 1.89277 0.00192624C1.21666 0.0300975 0.544885 0.402825 0.232834 1.02043C0.08331 1.31947 0.00096312 1.62719 0.00096312 1.96091C-0.0012039 2.38131 0.00096312 2.79955 0.00096312 3.21995C0.00096312 4.13227 0.00096312 5.04241 0.00096312 5.95473C0.00096312 7.13576 0.00096312 8.31461 0.00096312 9.49564C0.00096312 10.7352 0.00096312 11.9747 0.00096312 13.2142C0.00096312 14.2804 0.00096312 15.3466 0.00096312 16.4128C0.00096312 17.0975 0.00096312 17.7802 0.00096312 18.4649C0.00096312 18.5928 0.00096312 18.7206 0.00096312 18.8507C0.00313014 19.2061 0.094145 19.5723 0.282676 19.8735C0.642401 20.4478 1.26217 20.7966 1.94045 20.8053C2.35435 20.8096 2.77041 20.8053 3.18648 20.8053C4.18764 20.8053 5.18881 20.8053 6.18997 20.8053C7.41867 20.8053 8.64954 20.8053 9.87824 20.8053C10.9986 20.8053 12.1189 20.8053 13.2393 20.8053C13.9002 20.8053 14.5612 20.8053 15.2221 20.8053C15.649 20.8053 16.0802 20.749 16.4421 20.4998C16.9926 20.1227 17.3306 19.5376 17.3393 18.8637C17.3415 18.686 17.3393 18.5061 17.3393 18.3284C17.3393 17.882 17.3393 17.4378 17.3393 16.9914C17.3393 16.5385 16.9406 16.1029 16.4725 16.1246C16.0022 16.1462 15.6057 16.5059 15.6057 16.9914Z" fill="white"/>
</svg>
