<svg width="21" height="27" viewBox="0 0 21 27" fill="none" xmlns="http://www.w3.org/2000/svg">
<path d="M10.5 0.65625C5.07183 0.65625 0.65625 5.07216 0.65625 10.5C0.65625 15.9278 5.07183 20.3438 10.5 20.3438C15.9282 20.3438 20.3438 15.9278 20.3438 10.5C20.3438 5.07216 15.9282 0.65625 10.5 0.65625ZM10.5 19.0312C5.796 19.0312 1.96875 15.2043 1.96875 10.5C1.96875 5.79567 5.796 1.96875 10.5 1.96875C15.204 1.96875 19.0312 5.79567 19.0312 10.5C19.0312 15.2043 15.204 19.0312 10.5 19.0312Z" fill="white"/>
<path d="M10.7193 15.7673C10.6561 15.7673 10.5968 15.7316 10.5415 15.6603C10.4862 15.589 10.4585 15.5007 10.4585 15.3956C10.4585 14.8475 10.8759 13.2406 11.7114 10.5751C12.2236 8.9458 12.4797 8.0222 12.4797 7.80445C12.4797 7.62425 12.4119 7.48158 12.2782 7.37645C12.144 7.27132 11.9511 7.21875 11.6982 7.21875C11.2406 7.21875 10.6863 7.39331 10.0352 7.74244C9.38405 8.09156 8.66375 8.67917 7.875 9.50513L8.39646 9.88805C9.09169 9.2423 9.5401 8.85938 9.74157 8.73928C9.94304 8.61912 10.1228 8.55908 10.2808 8.55908C10.423 8.55908 10.4942 8.63415 10.4942 8.7843C10.4942 8.91949 10.4665 9.07344 10.4112 9.2461C9.22615 12.8953 8.63356 15.1892 8.63356 16.1277C8.63356 16.4206 8.71454 16.6496 8.8765 16.8148C9.0384 16.9799 9.25765 17.0625 9.53413 17.0625C9.85018 17.0625 10.2571 16.9274 10.7548 16.657C11.2525 16.3867 12.0426 15.7673 13.125 14.7986L12.6628 14.3706C11.6199 15.3018 10.9721 15.7673 10.7193 15.7673Z" fill="white"/>
<path d="M10.5 6.5625C11.2249 6.5625 11.8125 5.97487 11.8125 5.25C11.8125 4.52513 11.2249 3.9375 10.5 3.9375C9.77513 3.9375 9.1875 4.52513 9.1875 5.25C9.1875 5.97487 9.77513 6.5625 10.5 6.5625Z" fill="white"/>
</svg>
