<svg width="25" height="31" viewBox="0 0 25 31" fill="none" xmlns="http://www.w3.org/2000/svg">
<path d="M1.05957 13.9974V23.0783C1.05957 23.2742 1.21803 23.4326 1.41386 23.4326H4.25991C4.45573 23.4326 4.61419 23.2742 4.61419 23.0783V22.6369L13.1143 24.0239C13.308 24.0692 13.5045 24.0914 13.7004 24.0914C14.2453 24.0914 14.785 23.9191 15.2486 23.5842L23.2177 16.9956C23.6892 16.6061 23.8608 15.9823 23.6546 15.4062C23.4484 14.8305 22.9198 14.4568 22.307 14.4551C21.5971 14.4551 20.8982 14.645 20.2851 15.0049L15.0912 17.2638C15.0995 17.1987 15.104 17.1326 15.104 17.0652C15.104 16.2314 14.4256 15.5529 13.5914 15.5529H9.64927C9.23718 15.2099 7.7428 14.2095 4.61419 14.4273V13.9974C4.61419 13.8015 4.45573 13.6431 4.25991 13.6431H1.41386C1.21803 13.6431 1.05957 13.8015 1.05957 13.9974ZM9.25762 16.1521C9.32439 16.222 9.41677 16.2615 9.51364 16.2615H13.5914C14.0346 16.2615 14.3955 16.622 14.3955 17.0652C14.3955 17.3319 14.265 17.5686 14.0647 17.7149C14.0557 17.7205 14.0474 17.7263 14.0391 17.7329C13.9111 17.8191 13.7571 17.8692 13.5914 17.8692H10.5876C10.3917 17.8692 10.2333 18.0277 10.2333 18.2235C10.2333 18.4194 10.3917 18.5778 10.5876 18.5778H13.5914C13.9007 18.5778 14.1886 18.4844 14.4283 18.3246L20.5875 15.646C20.6013 15.6401 20.6145 15.6332 20.6273 15.6255C21.1359 15.3235 21.7168 15.1637 22.306 15.1637C22.6817 15.1647 22.9045 15.4131 22.9876 15.6453C23.0706 15.8771 23.0561 16.2103 22.7665 16.4497L14.8162 23.0237C14.3702 23.3448 13.8087 23.4579 13.2516 23.3292L4.61419 21.919V15.1346C7.96468 14.891 9.24655 16.1414 9.25762 16.1521ZM1.76814 14.3516H3.90562V14.8094V22.22V22.7241H1.76814V14.3516Z" fill="#1AD5FE"/>
<path d="M16.7182 14.6444C18.7194 14.6444 20.3476 13.0162 20.3476 11.0151C20.3476 9.01357 18.7194 7.38538 16.7182 7.38538C14.7171 7.38538 13.0889 9.01357 13.0889 11.0151C13.0889 13.0162 14.7171 14.6444 16.7182 14.6444ZM16.7182 8.09395C18.3288 8.09395 19.639 9.40453 19.639 11.0151C19.639 12.6256 18.3288 13.9359 16.7182 13.9359C15.1077 13.9359 13.7974 12.6256 13.7974 11.0151C13.7974 9.40453 15.1077 8.09395 16.7182 8.09395Z" fill="#1AD5FE"/>
<path d="M16.6056 12.4561C16.2712 12.4561 15.9607 12.3429 15.7459 12.1996L15.6025 12.5995C15.8115 12.7487 16.1697 12.8561 16.5157 12.8622V13.1705H16.8918V12.8442C17.5066 12.7426 17.8346 12.3011 17.8346 11.8295C17.8346 11.2983 17.5246 10.988 16.9098 10.7372C16.3903 10.5225 16.1697 10.3672 16.1697 10.0569C16.1697 9.81825 16.3427 9.54369 16.8024 9.54369C17.1844 9.54369 17.4288 9.67491 17.5542 9.74659L17.7034 9.35269C17.5304 9.25112 17.286 9.15563 16.9278 9.14372V8.85925H16.5575V9.16754C16.0083 9.2572 15.6565 9.63311 15.6565 10.1286C15.6565 10.6478 16.0326 10.9224 16.6411 11.161C17.0828 11.3401 17.3156 11.543 17.3156 11.8713C17.3156 12.2115 17.0294 12.4561 16.6056 12.4561Z" fill="#1AD5FE"/>
<path d="M10.668 2.57654C8.90761 2.57654 7.47559 4.00856 7.47559 5.76857C7.47559 7.52893 8.90761 8.96095 10.668 8.96095C12.428 8.96095 13.86 7.52893 13.86 5.76857C13.86 4.00856 12.428 2.57654 10.668 2.57654ZM10.668 8.25238C9.29822 8.25238 8.18416 7.13831 8.18416 5.76857C8.18416 4.39917 9.29822 3.28511 10.668 3.28511C12.0374 3.28511 13.1514 4.39917 13.1514 5.76857C13.1514 7.13831 12.0374 8.25238 10.668 8.25238Z" fill="#1AD5FE"/>
<path d="M10.8339 5.52806C10.3838 5.34192 10.1926 5.20738 10.1926 4.93851C10.1926 4.73176 10.3425 4.49384 10.7409 4.49384C11.0719 4.49384 11.2837 4.60753 11.3923 4.66964L11.5216 4.32833C11.3717 4.24032 11.1599 4.15758 10.8495 4.14727V3.90076H10.5286V4.1679C10.0528 4.24559 9.74792 4.57131 9.74792 5.00063C9.74792 5.45058 10.0738 5.68851 10.6011 5.89526C10.9839 6.05043 11.1856 6.22625 11.1856 6.51072C11.1856 6.80547 10.9375 7.01752 10.5703 7.01752C10.2806 7.01752 10.0115 6.91939 9.8254 6.79516L9.70117 7.14172C9.88225 7.27101 10.1926 7.36408 10.4924 7.36934V7.63648H10.8184V7.35377C11.3511 7.26576 11.6353 6.88317 11.6353 6.4745C11.6353 6.01423 11.3666 5.74536 10.8339 5.52806Z" fill="#1AD5FE"/>
<path d="M22.153 3.901C22.153 2.14064 20.7209 0.708618 18.9606 0.708618C17.2006 0.708618 15.7686 2.14064 15.7686 3.901C15.7686 5.66101 17.2006 7.09303 18.9606 7.09303C20.7209 7.09303 22.153 5.66101 22.153 3.901ZM18.9606 6.38446C17.5912 6.38446 16.4771 5.27039 16.4771 3.901C16.4771 2.53125 17.5912 1.41719 18.9606 1.41719C20.3303 1.41719 21.4444 2.53125 21.4444 3.901C21.4444 5.27039 20.3303 6.38446 18.9606 6.38446Z" fill="#1AD5FE"/>
<path d="M19.126 3.66026C18.6758 3.47413 18.4846 3.33958 18.4846 3.07071C18.4846 2.86394 18.6345 2.62604 19.0329 2.62604C19.3639 2.62604 19.5757 2.73974 19.6843 2.80184L19.8136 2.46053C19.6637 2.37252 19.4519 2.28979 19.1415 2.27945V2.03296H18.8206V2.3001C18.3448 2.3778 18.0399 2.70352 18.0399 3.13284C18.0399 3.58279 18.3659 3.82069 18.8931 4.02746C19.2758 4.18263 19.4776 4.35846 19.4776 4.6429C19.4776 4.93767 19.2295 5.1497 18.8623 5.1497C18.5726 5.1497 18.3035 5.05159 18.1174 4.92736L17.9932 5.27393C18.1742 5.40321 18.4846 5.49628 18.7844 5.50154V5.76866H19.1104V5.48595C19.6431 5.39794 19.9273 5.01537 19.9273 4.6067C19.9273 4.14643 19.6586 3.87754 19.126 3.66026Z" fill="#1AD5FE"/>
</svg>
