<svg width="31" height="38" viewBox="0 0 31 38" fill="none" xmlns="http://www.w3.org/2000/svg">
<path d="M13.8624 12.1296C15.2304 12.1296 16.3249 11.0048 16.3249 9.6672C16.3249 8.2992 15.2 7.2048 13.8624 7.2048C13.832 7.2048 13.7713 7.2048 13.7409 7.2048V5.8672C13.7409 5.7152 13.6193 5.5936 13.4672 5.5936C13.3153 5.5936 13.1937 5.7152 13.1937 5.8672V7.296C12.1297 7.5696 11.3697 8.5424 11.3697 9.6976C11.4001 11.0048 12.4944 12.1296 13.8624 12.1296ZM13.8624 7.6912C14.9569 7.6912 15.8081 8.5728 15.8081 9.6368C15.8081 10.7312 14.9264 11.5824 13.8624 11.5824C12.7681 11.5824 11.8865 10.7008 11.8865 9.6368C11.9169 8.5424 12.7984 7.6912 13.8624 7.6912ZM14.5617 5.9584V5.0464C14.5617 4.8944 14.6832 4.7728 14.8352 4.7728C14.9873 4.7728 15.1089 4.8944 15.1089 5.0464V5.9584C15.1089 6.1104 14.9873 6.232 14.8352 6.232C14.6832 6.232 14.5617 6.1104 14.5617 5.9584ZM14.5617 4.0736V1.9152C14.5617 1.7632 14.6832 1.6416 14.8352 1.6416C14.9873 1.6416 15.1089 1.7632 15.1089 1.9152V4.104C15.1089 4.256 14.9873 4.3776 14.8352 4.3776C14.6832 4.3776 14.5617 4.2256 14.5617 4.0736ZM13.2241 4.7424V4.104C13.2241 3.952 13.3457 3.8304 13.4977 3.8304C13.6497 3.8304 13.7712 3.952 13.7712 4.104V4.7424C13.7712 4.8944 13.6497 5.016 13.4977 5.016C13.3457 5.016 13.2241 4.8944 13.2241 4.7424ZM27.1473 18.848H26.2048C25.7488 18.848 23.3472 17.9968 23.3472 16.4768C23.3472 16.4464 23.3472 16.416 23.3472 16.3856C23.3777 15.7776 23.3472 15.2912 23.3472 15.2304C23.3472 15.1088 23.256 15.0176 23.1648 14.9872C21.5536 14.592 20.5201 15.7168 20.0944 16.3248C18.7568 14.1664 16.2033 12.8288 13.3457 12.8288C9.60645 12.8288 6.47525 15.2 5.77605 18.3312C5.77605 18.3312 5.74565 18.3312 5.74565 18.3616C5.50245 18.6352 5.16805 18.7872 4.83365 18.7872C4.46885 18.8176 4.13445 18.696 3.86085 18.4528C3.43525 18.088 3.40485 17.4192 3.80005 17.024C4.07365 16.72 4.56005 16.6896 4.86405 16.9632C5.10725 17.176 5.10725 17.5104 4.89445 17.7536C4.74245 17.9056 4.49925 17.936 4.34725 17.784C4.22565 17.6928 4.22565 17.5104 4.31685 17.4192C4.40805 17.328 4.40805 17.1456 4.28645 17.0544C4.19525 16.9632 4.01285 16.9632 3.92165 17.0848C3.76965 17.2368 3.70885 17.4496 3.70885 17.6624C3.70885 17.8752 3.80005 18.0576 3.95205 18.2096C4.31685 18.544 4.89445 18.5136 5.22885 18.1488C5.62405 17.7232 5.59365 17.024 5.13765 16.6288C4.62085 16.1424 3.80005 16.2032 3.34405 16.72C2.76645 17.3584 2.82725 18.3312 3.46565 18.8784C3.80005 19.1824 4.25605 19.3648 4.71205 19.3648C4.74245 19.3648 4.77285 19.3648 4.80325 19.3648C5.10725 19.3648 5.38085 19.2736 5.62405 19.1216C5.59365 19.304 5.59365 19.4864 5.59365 19.6384C5.59365 21.2192 6.23205 22.7392 7.35685 23.9552C6.56645 26.3264 8.63365 28.6064 8.72485 28.6976C8.78565 28.7584 8.84645 28.7888 8.90725 28.7888H10.9745C11.1265 28.7888 11.2481 28.6672 11.2481 28.5456V26.2048H17.4192C17.6017 27.208 17.9361 28.1504 18.5137 28.728C18.5745 28.7888 18.6353 28.7888 18.696 28.7888H21.128C21.2801 28.7888 21.3713 28.6672 21.3713 28.5456V24.928C22.3137 24.9584 25.1712 24.7152 27.3601 20.9152C27.3904 20.8848 27.3904 20.824 27.3904 20.7936V19.1216C27.4208 18.9696 27.2993 18.848 27.1473 18.848ZM26.904 20.7328C24.5024 24.8368 21.3104 24.4112 21.1888 24.4112C21.128 24.4112 21.0368 24.4112 20.976 24.472C20.9153 24.5328 20.8848 24.5936 20.8848 24.6544V28.2416H18.8177C17.5713 26.8432 17.6929 22.8304 17.6929 22.8C17.6929 22.648 17.5713 22.5264 17.4497 22.5264C17.2977 22.5264 17.1761 22.6176 17.1761 22.7696C17.1761 22.8608 17.1456 24.2288 17.328 25.6576H11.5217C11.9169 25.1104 12.4641 24.0768 12.4641 22.648C12.4641 22.496 12.3425 22.4048 12.1905 22.4048C12.0385 22.4048 11.9169 22.5264 11.9169 22.648C11.9169 24.5632 10.7921 25.7488 10.7617 25.7488C10.7617 25.7488 10.7617 25.7488 10.7617 25.7792C10.7313 25.8096 10.7313 25.8096 10.7313 25.84C10.7313 25.8704 10.7009 25.9008 10.7009 25.9312V28.272H9.02885C8.66405 27.8464 7.17445 25.8704 7.90405 23.9856C7.93445 23.8944 7.90405 23.7728 7.84325 23.712C6.71845 22.5872 6.11045 21.128 6.11045 19.6384C6.11045 16.1728 9.33285 13.376 13.2849 13.376C16.2337 13.376 18.9392 14.9872 19.9728 17.3888C20.0336 17.5104 20.1857 17.5712 20.3073 17.5104C20.4289 17.4496 20.4896 17.2976 20.4288 17.176C20.368 17.0848 20.3376 16.9632 20.2768 16.872C20.4592 16.5376 21.3104 15.2608 22.7696 15.504C22.8001 16.2944 22.7696 19.3344 20.6417 19.5776C20.4897 19.608 20.3984 19.7296 20.4288 19.8512C20.4592 19.9728 20.5504 20.0944 20.6721 20.0944H20.7024C22.1616 19.912 22.8305 18.7568 23.104 17.6016C23.864 18.7872 25.6576 19.3952 26.1744 19.3952H26.8736V20.7328H26.904ZM23.4993 19.0304C23.1345 19.0304 22.8305 19.3344 22.8305 19.6992C22.8305 20.064 23.1345 20.368 23.4993 20.368C23.864 20.368 24.1681 20.064 24.1681 19.6992C24.1681 19.3344 23.864 19.0304 23.4993 19.0304ZM23.4993 19.8512C23.4081 19.8512 23.3472 19.7904 23.3472 19.6992C23.3472 19.608 23.4081 19.5472 23.4993 19.5472C23.5905 19.5472 23.6513 19.608 23.6513 19.6992C23.6513 19.7904 23.5905 19.8512 23.4993 19.8512ZM15.7472 14.44C15.6865 14.5616 15.5345 14.6224 15.4129 14.5616C14.4097 14.1056 13.1937 14.1056 12.1601 14.5616C12.1297 14.5616 12.0993 14.592 12.0689 14.592C11.9777 14.592 11.8865 14.5312 11.8257 14.44C11.7649 14.3184 11.8257 14.1664 11.9473 14.1056C13.1025 13.5888 14.4704 13.6192 15.5953 14.1056C15.7472 14.136 15.8081 14.288 15.7472 14.44Z" fill="#1AD5FE"/>
</svg>
