<svg width="18" height="18" viewBox="0 0 18 18" fill="none" xmlns="http://www.w3.org/2000/svg">
<path d="M17.9733 8.17075C17.6889 7.16389 17.4038 6.15702 17.1182 5.15015C17.0084 4.76492 16.9778 4.74692 16.5782 4.72172C15.9751 4.68392 15.3721 4.64431 14.7781 4.59571C14.445 4.56871 14.4522 4.56151 14.49 4.23569C14.5801 3.49044 14.6557 2.74159 14.7421 1.96933C14.7376 1.90714 14.7146 1.8477 14.6761 1.79863C14.6376 1.74957 14.5854 1.7131 14.526 1.69391C13.5432 1.21388 12.5615 0.73085 11.581 0.244817C11.5222 0.213579 11.4569 0.196332 11.3902 0.194413C11.3411 0.195749 11.2927 0.20714 11.2481 0.227883C11.2036 0.248626 11.1637 0.278282 11.131 0.315021C10.5622 0.869459 9.98614 1.4149 9.4173 1.96933C9.39943 1.99644 9.3751 2.01869 9.34652 2.03409C9.31793 2.04948 9.28596 2.05754 9.25349 2.05754C9.22102 2.05754 9.18906 2.04948 9.16047 2.03409C9.13188 2.01869 9.10755 1.99644 9.08968 1.96933C8.47404 1.36089 7.8512 0.761452 7.23195 0.156611C7.19961 0.113871 7.15908 0.0780076 7.11271 0.0511172C7.06635 0.0242268 7.01509 0.00684908 6.96194 0C6.88533 0.00601485 6.81098 0.0287501 6.74412 0.0666045C5.75945 0.538236 4.78379 1.01527 3.80272 1.4815C3.72792 1.51128 3.66627 1.56688 3.62895 1.63821C3.59163 1.70955 3.58111 1.7919 3.59931 1.87033C3.68571 2.66418 3.76132 3.46163 3.84952 4.25549C3.86003 4.28619 3.86261 4.31904 3.85703 4.351C3.85145 4.38296 3.83788 4.413 3.81759 4.43831C3.7973 4.46363 3.77094 4.48342 3.74096 4.49583C3.71099 4.50824 3.67836 4.51287 3.64611 4.50931C2.77125 4.62091 1.89819 4.74332 1.02333 4.86933C0.946243 4.87248 0.872739 4.90274 0.81577 4.95476C0.7588 5.00679 0.722021 5.07726 0.711911 5.15375C0.483296 6.20502 0.25288 7.26169 0.0242644 8.32196C-0.0315394 8.58478 -0.000937292 8.64779 0.220478 8.79L2.20061 10.0357C2.38062 10.1455 2.38062 10.1797 2.27802 10.3615L0.976529 12.6009C0.84692 12.8223 0.854121 12.8961 1.01793 13.0923L3.08807 15.5783C3.11455 15.6241 3.15152 15.663 3.19596 15.6918C3.24039 15.7206 3.29102 15.7384 3.34369 15.7439C3.40916 15.7409 3.47367 15.7269 3.5345 15.7025L5.71805 14.9104C5.78159 14.8826 5.84894 14.8644 5.91786 14.8564C5.99347 14.8564 6.02227 14.9158 6.08348 15.0688C6.3967 15.8537 6.71352 16.6385 7.01774 17.427C7.0411 17.5176 7.09552 17.5971 7.17151 17.6517C7.24749 17.7063 7.34024 17.7326 7.43357 17.7258C8.50104 17.7258 9.56671 17.7258 10.6342 17.7258C10.9132 17.7258 10.9672 17.679 11.0518 17.4108C11.2966 16.6331 11.5432 15.8555 11.7827 15.0706C11.7856 15.0272 11.8042 14.9863 11.835 14.9555C11.8658 14.9247 11.9066 14.9062 11.9501 14.9032C11.985 14.9042 12.0195 14.9103 12.0527 14.9212C12.8627 15.1642 13.6728 15.3964 14.4864 15.6413C14.5719 15.6709 14.6609 15.6891 14.7511 15.6953C14.8735 15.6953 14.9401 15.6269 15.0715 15.4486L16.9454 12.8889C17.0876 12.6945 17.0876 12.6153 16.9454 12.41C16.5062 11.7566 16.0706 11.1014 15.6259 10.4497C15.6028 10.426 15.5859 10.3971 15.5766 10.3653C15.5674 10.3336 15.5661 10.3 15.5728 10.2677C15.5796 10.2353 15.5942 10.2051 15.6154 10.1797C15.6366 10.1543 15.6637 10.1345 15.6943 10.1221C16.4 9.62345 17.1002 9.11582 17.8023 8.60998C18.0003 8.46237 18.0327 8.37957 17.9733 8.17075ZM16.7132 8.05375C16.1732 8.44257 15.6151 8.8458 15.0643 9.23463C14.9172 9.32784 14.791 9.45054 14.6937 9.59498C14.5964 9.73941 14.5301 9.90244 14.499 10.0738C14.4679 10.2451 14.4726 10.4211 14.5129 10.5905C14.5532 10.7599 14.6281 10.9192 14.7331 11.0581C15.0499 11.5208 15.3685 11.9978 15.6763 12.4568L15.7897 12.6261L14.4342 14.4892L13.9734 14.356C13.446 14.203 12.8933 14.0446 12.3695 13.8843C12.2359 13.8432 12.097 13.822 11.9573 13.8213C11.6826 13.8218 11.4158 13.9135 11.1989 14.0819C10.9819 14.2503 10.827 14.486 10.7584 14.752C10.5784 15.3406 10.3894 15.9401 10.2058 16.5179L10.168 16.6385H7.8728C7.69278 16.1723 7.51277 15.7079 7.32376 15.2542L7.08794 14.6638C6.79452 13.9257 6.29049 13.7637 5.91786 13.7637C5.72259 13.7683 5.52981 13.8086 5.34903 13.8825L4.62898 14.1436L3.61371 14.5036L2.13941 12.7323L2.59844 11.9456L3.21588 10.8871C3.61371 10.2049 3.4463 9.52085 2.78025 9.10322L1.67678 8.42997L1.17454 8.11315L1.25915 7.70632C1.39236 7.09308 1.52437 6.47924 1.65517 5.8648L2.12141 5.80179C2.66144 5.72799 3.22668 5.65058 3.77752 5.58038C3.94895 5.56577 4.11557 5.5162 4.26711 5.43474C4.41865 5.35328 4.55191 5.24165 4.65867 5.10673C4.76542 4.97181 4.84342 4.81645 4.88785 4.65024C4.93228 4.48403 4.9422 4.31047 4.917 4.14028C4.87199 3.73525 4.83059 3.33023 4.78919 2.9252C4.76639 2.69838 4.74298 2.47157 4.71898 2.24475L5.97907 1.63811L6.79992 1.24028L6.89173 1.32849C7.36696 1.78932 7.8566 2.26635 8.33183 2.73799C8.44943 2.86383 8.59158 2.96423 8.74951 3.03298C8.90743 3.10173 9.07777 3.13737 9.25001 3.13771C9.42225 3.13805 9.59273 3.10307 9.75092 3.03494C9.90911 2.96681 10.0517 2.86697 10.1698 2.74159C10.4506 2.46797 10.7326 2.19555 11.0158 1.92433L11.536 1.4275L13.6026 2.44457V2.52557C13.5432 3.06561 13.4856 3.58404 13.4226 4.10608V4.12408C13.3827 4.31352 13.3841 4.50933 13.4266 4.69819C13.4692 4.88704 13.5519 5.06452 13.6692 5.21855C13.7983 5.36428 13.9572 5.48053 14.1352 5.55942C14.3131 5.63832 14.506 5.678 14.7007 5.67578C15.2047 5.71539 15.7177 5.75139 16.1858 5.78019C16.3886 6.51464 16.5938 7.25269 16.8014 7.99434L16.7132 8.05375Z" fill="white"/>
</svg>
