<svg width="20" height="20" viewBox="0 0 20 20" fill="none" xmlns="http://www.w3.org/2000/svg">
<path d="M17.3577 6.20393V4.63049H16.3677V5.47485L10.0007 0.785767L0.373047 7.87571L2.03603 10.1336L2.62739 9.69797V19.2145H8.18283V12.6123C8.18283 11.61 8.99859 10.7947 10.0011 10.7947C11.0034 10.7947 11.8188 11.61 11.8188 12.6123V19.2145H17.3749V9.69775L17.966 10.1331L19.6281 7.87527L17.3577 6.20393ZM17.7559 8.74867L16.3849 7.73799V18.2243H12.8085V12.6121C12.8085 11.0639 11.549 9.80445 10.0009 9.80445C8.45255 9.80445 7.19261 11.0639 7.19261 12.6121V18.2243H3.61717V7.73843L2.24591 8.74889L1.75729 8.08559L10.0007 2.01513L18.2439 8.08559L17.7559 8.74867Z" fill="white"/>
</svg>
