<svg width="32" height="39" viewBox="0 0 32 39" fill="none" xmlns="http://www.w3.org/2000/svg">
<path d="M24.0153 19.0786C23.7281 19.0786 23.498 19.3112 23.498 19.5986C23.498 19.886 23.7334 20.1186 24.0206 20.1186C24.3078 20.1186 24.5406 19.886 24.5406 19.5986C24.5406 19.3112 24.3078 19.0786 24.0206 19.0786H24.0153Z" fill="#1AD5FE"/>
<path d="M5.72012 27.8852H25.4801C26.9137 27.8852 28.0801 26.7188 28.0801 25.2852V21.8687V17.3293V13.9128V10.5795C28.0801 9.49854 27.4011 8.54083 26.4079 8.16051C26.1329 7.65613 25.659 7.26302 25.0563 7.12432L8.79264 3.37057C8.25182 3.24362 7.69475 3.33553 7.22324 3.63007C6.74945 3.9251 6.41988 4.38671 6.29496 4.93007L5.67168 7.63017L5.58739 7.99291C4.21658 8.06365 3.12012 9.19137 3.12012 10.5795V13.9128V25.2852C3.12012 26.7188 4.28656 27.8852 5.72012 27.8852ZM27.0401 21.3487H24.175C23.2115 21.3487 22.4277 20.5646 22.4277 19.5962C22.4277 18.6329 23.2115 17.8493 24.175 17.8493H27.0401V21.3487ZM26.4023 10.5521C26.4035 10.547 26.4018 10.542 26.4028 10.537L26.6161 9.61413C26.6226 9.58594 26.6214 9.55805 26.6267 9.52986C26.8833 9.81072 27.0401 10.1804 27.0401 10.5795V11.8461C26.7903 11.6569 26.5067 11.5158 26.1984 11.4263L26.4023 10.5521ZM7.30855 5.16315C7.37102 4.89147 7.53605 4.66042 7.7732 4.51264C8.00832 4.36589 8.28609 4.31917 8.55676 4.38366L24.8228 8.13792C25.3808 8.26639 25.7307 8.82397 25.6028 9.38053L25.5036 9.80954L7.20953 5.59222L7.30855 5.16315ZM6.69363 7.82733L6.97746 6.60585L25.2694 10.8228L25.1562 11.3128H20.8751L6.64643 8.03185L6.69363 7.82733ZM6.41255 9.04512L16.2461 11.3128H5.88912L6.41255 9.04512ZM4.16012 10.5795C4.16012 9.8515 4.66342 9.24343 5.33885 9.07213L4.77946 11.4955C4.5551 11.5832 4.34931 11.7028 4.16012 11.8461V10.5795ZM4.16012 13.9128C4.16012 13.0525 4.85988 12.3528 5.72012 12.3528H25.4801C26.3404 12.3528 27.0401 13.0525 27.0401 13.9128V16.8093H24.175C22.6381 16.8093 21.3877 18.0596 21.3877 19.6013C21.3877 21.1384 22.6381 22.3887 24.175 22.3887H27.0401V25.2852C27.0401 26.1455 26.3404 26.8452 25.4801 26.8452H5.72012C4.85988 26.8452 4.16012 26.1455 4.16012 25.2852V13.9128Z" fill="#1AD5FE"/>
</svg>
